<?xml version="1.0" standalone="no"?>
<!DOCTYPE svg PUBLIC "-//W3C//DTD SVG 1.1//EN"
"http://www.w3.org/Graphics/SVG/1.1/DTD/svg11.dtd">
<svg width="800" height="600" version="1.1" xmlns="http://www.w3.org/2000/svg"><g><rect x="0" y="0" width="800" height="600" fill="#f9f9f9" /><g transform="translate(40 40)"><g transform="translate(32 0)"><text x="0" y="0" fill="#333" font-family="Monaco" font-size="16">Colorized dots</text></g><g transform="translate(0 20)"><g transform="translate(32 0)"><g class="axis bottom"><g class="tick"><line x1="229.3333333333333333333333333" y1="0" x2="229.3333333333333333333333333" y2="482.0" stroke="#eee" stroke-width="1" /><text x="229.3333333333333333333333333" y="486.0" dy="1em" fill="#9c9c9c" text-anchor="middle" font-family="Monaco">100</text></g><g class="tick"><line x1="458.6666666666666666666666667" y1="0" x2="458.6666666666666666666666667" y2="482.0" stroke="#eee" stroke-width="1" /><text x="458.6666666666666666666666667" y="486.0" dy="1em" fill="#9c9c9c" text-anchor="middle" font-family="Monaco">200</text></g><g class="tick"><line x1="688" y1="0" x2="688" y2="482.0" stroke="#eee" stroke-width="1" /><text x="688" y="486.0" dy="1em" fill="#9c9c9c" text-anchor="middle" font-family="Monaco">300</text></g><g class="tick"><line x1="0" y1="0" x2="0" y2="482.0" stroke="#a8a8a8" stroke-width="1" /><text x="0" y="486.0" dy="1em" fill="#9c9c9c" text-anchor="middle" font-family="Monaco">0</text></g></g><g class="axis left"><g class="tick"><line x1="-4" y1="318.6666666666666666666666667" x2="688.0" y2="318.6666666666666666666666667" stroke="#eee" stroke-width="1" /><text x="-8" y="318.6666666666666666666666667" dy="0.32em" fill="#9c9c9c" text-anchor="end" font-family="Monaco">100</text></g><g class="tick"><line x1="-4" y1="159.3333333333333333333333333" x2="688.0" y2="159.3333333333333333333333333" stroke="#eee" stroke-width="1" /><text x="-8" y="159.3333333333333333333333333" dy="0.32em" fill="#9c9c9c" text-anchor="end" font-family="Monaco">200</text></g><g class="tick"><line x1="-4" y1="0" x2="688.0" y2="0" stroke="#eee" stroke-width="1" /><text x="-8" y="0" dy="0.32em" fill="#9c9c9c" text-anchor="end" font-family="Monaco">300</text></g><g class="tick"><line x1="-4" y1="478" x2="688.0" y2="478" stroke="#a8a8a8" stroke-width="1" /><text x="-8" y="478" dy="0.32em" fill="#9c9c9c" text-anchor="end" font-family="Monaco">0</text></g></g><g><g class="series dots"><circle cx="149.0666666666666666666666667" cy="299.5466666666666666666666667" r="3" fill="rgb(65, 112, 150)" /><circle cx="123.84" cy="309.1066666666666666666666667" r="3" fill="rgb(54, 106, 150)" /><circle cx="130.72" cy="239.0" r="3" fill="rgb(57, 150, 150)" /><circle cx="518.2933333333333333333333333" cy="395.1466666666666666666666667" r="3" fill="rgb(226, 52, 150)" /><circle cx="119.2533333333333333333333333" cy="387.18" r="3" fill="rgb(52, 57, 150)" /><circle cx="183.4666666666666666666666667" cy="258.12" r="3" fill="rgb(80, 138, 150)" /><circle cx="270.6133333333333333333333333" cy="399.9266666666666666666666667" r="3" fill="rgb(118, 49, 150)" /><circle cx="291.2533333333333333333333333" cy="423.8266666666666666666666667" r="3" fill="rgb(127, 34, 150)" /><circle cx="371.52" cy="202.3533333333333333333333333" r="3" fill="rgb(162, 173, 150)" /><circle cx="252.2666666666666666666666667" cy="256.5266666666666666666666667" r="3" fill="rgb(110, 139, 150)" /><circle cx="408.2133333333333333333333333" cy="427.0133333333333333333333333" r="3" fill="rgb(178, 32, 150)" /><circle cx="513.7066666666666666666666667" cy="344.16" r="3" fill="rgb(224, 84, 150)" /><circle cx="467.84" cy="133.84" r="3" fill="rgb(204, 216, 150)" /><circle cx="410.5066666666666666666666667" cy="352.1266666666666666666666667" r="3" fill="rgb(179, 79, 150)" /><circle cx="548.1066666666666666666666667" cy="165.7066666666666666666666667" r="3" fill="rgb(239, 196, 150)" /><circle cx="405.92" cy="162.52" r="3" fill="rgb(177, 198, 150)" /><circle cx="144.48" cy="323.4466666666666666666666667" r="3" fill="rgb(63, 97, 150)" /><circle cx="467.84" cy="310.70" r="3" fill="rgb(204, 105, 150)" /><circle cx="550.4" cy="473.22" r="3" fill="rgb(240, 3, 150)" /><circle cx="431.1466666666666666666666667" cy="329.82" r="3" fill="rgb(188, 93, 150)" /><circle cx="513.7066666666666666666666667" cy="411.08" r="3" fill="rgb(224, 42, 150)" /><circle cx="16.05333333333333333333333333" cy="296.36" r="3" fill="rgb(7, 114, 150)" /><circle cx="158.24" cy="457.2866666666666666666666667" r="3" fill="rgb(69, 13, 150)" /><circle cx="123.84" cy="243.78" r="3" fill="rgb(54, 147, 150)" /><circle cx="213.28" cy="285.2066666666666666666666667" r="3" fill="rgb(93, 121, 150)" /><circle cx="112.3733333333333333333333333" cy="422.2333333333333333333333333" r="3" fill="rgb(49, 35, 150)" /><circle cx="116.96" cy="360.0933333333333333333333333" r="3" fill="rgb(51, 74, 150)" /><circle cx="499.9466666666666666666666667" cy="167.30" r="3" fill="rgb(218, 195, 150)" /><circle cx="451.7866666666666666666666667" cy="258.12" r="3" fill="rgb(197, 138, 150)" /><circle cx="213.28" cy="205.54" r="3" fill="rgb(93, 171, 150)" /><circle cx="431.1466666666666666666666667" cy="165.7066666666666666666666667" r="3" fill="rgb(188, 196, 150)" /><circle cx="389.8666666666666666666666667" cy="266.0866666666666666666666667" r="3" fill="rgb(170, 133, 150)" /><circle cx="112.3733333333333333333333333" cy="396.74" r="3" fill="rgb(49, 51, 150)" /><circle cx="305.0133333333333333333333333" cy="152.96" r="3" fill="rgb(133, 204, 150)" /><circle cx="495.36" cy="312.2933333333333333333333333" r="3" fill="rgb(216, 104, 150)" /><circle cx="532.0533333333333333333333333" cy="146.5866666666666666666666667" r="3" fill="rgb(232, 208, 150)" /><circle cx="263.7333333333333333333333333" cy="165.7066666666666666666666667" r="3" fill="rgb(115, 196, 150)" /><circle cx="16.05333333333333333333333333" cy="243.78" r="3" fill="rgb(7, 147, 150)" /><circle cx="323.36" cy="321.8533333333333333333333333" r="3" fill="rgb(141, 98, 150)" /><circle cx="130.72" cy="168.8933333333333333333333333" r="3" fill="rgb(57, 194, 150)" /><circle cx="256.8533333333333333333333333" cy="278.8333333333333333333333333" r="3" fill="rgb(112, 125, 150)" /><circle cx="499.9466666666666666666666667" cy="253.34" r="3" fill="rgb(218, 141, 150)" /><circle cx="61.92" cy="219.88" r="3" fill="rgb(27, 162, 150)" /><circle cx="302.72" cy="258.12" r="3" fill="rgb(132, 138, 150)" /><circle cx="532.0533333333333333333333333" cy="175.2666666666666666666666667" r="3" fill="rgb(232, 190, 150)" /><circle cx="357.76" cy="274.0533333333333333333333333" r="3" fill="rgb(156, 128, 150)" /><circle cx="55.04" cy="296.36" r="3" fill="rgb(24, 114, 150)" /><circle cx="346.2933333333333333333333333" cy="111.5333333333333333333333333" r="3" fill="rgb(151, 230, 150)" /><circle cx="394.4533333333333333333333333" cy="229.44" r="3" fill="rgb(172, 156, 150)" /><circle cx="128.4266666666666666666666667" cy="309.1066666666666666666666667" r="3" fill="rgb(56, 106, 150)" /><circle cx="538.9333333333333333333333333" cy="304.3266666666666666666666667" r="3" fill="rgb(235, 109, 150)" /><circle cx="82.56" cy="262.90" r="3" fill="rgb(36, 135, 150)" /><circle cx="325.6533333333333333333333333" cy="455.6933333333333333333333333" r="3" fill="rgb(142, 14, 150)" /><circle cx="139.8933333333333333333333333" cy="240.5933333333333333333333333" r="3" fill="rgb(61, 149, 150)" /><circle cx="298.1333333333333333333333333" cy="419.0466666666666666666666667" r="3" fill="rgb(130, 37, 150)" /><circle cx="91.73333333333333333333333331" cy="242.1866666666666666666666667" r="3" fill="rgb(40, 148, 150)" /><circle cx="534.3466666666666666666666667" cy="97.1933333333333333333333333" r="3" fill="rgb(233, 239, 150)" /><circle cx="311.8933333333333333333333333" cy="340.9733333333333333333333333" r="3" fill="rgb(136, 86, 150)" /><circle cx="105.4933333333333333333333333" cy="328.2266666666666666666666667" r="3" fill="rgb(46, 94, 150)" /><circle cx="231.6266666666666666666666667" cy="205.54" r="3" fill="rgb(101, 171, 150)" /><circle cx="155.9466666666666666666666667" cy="94.0066666666666666666666667" r="3" fill="rgb(68, 241, 150)" /><circle cx="41.28" cy="278.8333333333333333333333333" r="3" fill="rgb(18, 125, 150)" /><circle cx="89.44" cy="101.9733333333333333333333333" r="3" fill="rgb(39, 236, 150)" /><circle cx="2.293333333333333333333333333" cy="449.32" r="3" fill="rgb(1, 18, 150)" /><circle cx="449.4933333333333333333333333" cy="387.18" r="3" fill="rgb(196, 57, 150)" /><circle cx="199.52" cy="246.9666666666666666666666667" r="3" fill="rgb(87, 145, 150)" /><circle cx="314.1866666666666666666666667" cy="208.7266666666666666666666667" r="3" fill="rgb(137, 169, 150)" /><circle cx="165.12" cy="288.3933333333333333333333333" r="3" fill="rgb(72, 119, 150)" /><circle cx="428.8533333333333333333333333" cy="151.3666666666666666666666667" r="3" fill="rgb(187, 205, 150)" /><circle cx="66.50666666666666666666666667" cy="391.96" r="3" fill="rgb(29, 54, 150)" /><circle cx="172.00" cy="301.14" r="3" fill="rgb(75, 111, 150)" /><circle cx="215.5733333333333333333333333" cy="101.9733333333333333333333333" r="3" fill="rgb(94, 236, 150)" /><circle cx="360.0533333333333333333333333" cy="468.44" r="3" fill="rgb(157, 6, 150)" /><circle cx="16.05333333333333333333333333" cy="356.9066666666666666666666667" r="3" fill="rgb(7, 76, 150)" /><circle cx="366.9333333333333333333333333" cy="135.4333333333333333333333333" r="3" fill="rgb(160, 215, 150)" /><circle cx="419.68" cy="288.3933333333333333333333333" r="3" fill="rgb(183, 119, 150)" /><circle cx="116.96" cy="211.9133333333333333333333333" r="3" fill="rgb(51, 167, 150)" /><circle cx="144.48" cy="242.1866666666666666666666667" r="3" fill="rgb(63, 148, 150)" /><circle cx="2.293333333333333333333333333" cy="431.7933333333333333333333333" r="3" fill="rgb(1, 29, 150)" /><circle cx="525.1733333333333333333333333" cy="427.0133333333333333333333333" r="3" fill="rgb(229, 32, 150)" /><circle cx="311.8933333333333333333333333" cy="307.5133333333333333333333333" r="3" fill="rgb(136, 107, 150)" /><circle cx="82.56" cy="285.2066666666666666666666667" r="3" fill="rgb(36, 121, 150)" /><circle cx="27.52" cy="422.2333333333333333333333333" r="3" fill="rgb(12, 35, 150)" /><circle cx="405.92" cy="183.2333333333333333333333333" r="3" fill="rgb(177, 185, 150)" /><circle cx="22.93333333333333333333333333" cy="285.2066666666666666666666667" r="3" fill="rgb(10, 121, 150)" /><circle cx="123.84" cy="285.2066666666666666666666667" r="3" fill="rgb(54, 121, 150)" /><circle cx="481.6" cy="256.5266666666666666666666667" r="3" fill="rgb(210, 139, 150)" /><circle cx="362.3466666666666666666666667" cy="202.3533333333333333333333333" r="3" fill="rgb(158, 173, 150)" /><circle cx="447.20" cy="278.8333333333333333333333333" r="3" fill="rgb(195, 125, 150)" /><circle cx="126.1333333333333333333333333" cy="237.4066666666666666666666667" r="3" fill="rgb(55, 151, 150)" /><circle cx="481.6" cy="302.7333333333333333333333333" r="3" fill="rgb(210, 110, 150)" /><circle cx="190.3466666666666666666666667" cy="124.28" r="3" fill="rgb(83, 222, 150)" /><circle cx="183.4666666666666666666666667" cy="444.54" r="3" fill="rgb(80, 21, 150)" /><circle cx="80.26666666666666666666666669" cy="342.5666666666666666666666667" r="3" fill="rgb(35, 85, 150)" /><circle cx="71.09333333333333333333333331" cy="425.42" r="3" fill="rgb(31, 33, 150)" /><circle cx="103.20" cy="235.8133333333333333333333333" r="3" fill="rgb(45, 152, 150)" /><circle cx="263.7333333333333333333333333" cy="129.06" r="3" fill="rgb(115, 219, 150)" /><circle cx="155.9466666666666666666666667" cy="450.9133333333333333333333333" r="3" fill="rgb(68, 17, 150)" /><circle cx="194.9333333333333333333333333" cy="315.48" r="3" fill="rgb(85, 102, 150)" /><circle cx="449.4933333333333333333333333" cy="246.9666666666666666666666667" r="3" fill="rgb(196, 145, 150)" /></g></g></g></g></g></g></svg>