<?xml version="1.0" standalone="no"?>
<!DOCTYPE svg PUBLIC "-//W3C//DTD SVG 1.1//EN"
"http://www.w3.org/Graphics/SVG/1.1/DTD/svg11.dtd">
<svg width="800" height="600" version="1.1" xmlns="http://www.w3.org/2000/svg"><g><rect x="0" y="0" width="800" height="600" fill="#f9f9f9" /><g transform="translate(40 40)"><g transform="translate(32 0)"><text x="0" y="0" fill="#333" font-family="Monaco" font-size="16">Line</text></g><g transform="translate(0 20)"><g transform="translate(32 0)"><g class="axis bottom"><g class="tick"><line x1="172.00" y1="0" x2="172.00" y2="482.0" stroke="#eee" stroke-width="1" /><text x="172.00" y="486.0" dy="1em" fill="#9c9c9c" text-anchor="middle" font-family="Monaco">2</text></g><g class="tick"><line x1="344.0" y1="0" x2="344.0" y2="482.0" stroke="#eee" stroke-width="1" /><text x="344.0" y="486.0" dy="1em" fill="#9c9c9c" text-anchor="middle" font-family="Monaco">4</text></g><g class="tick"><line x1="516.00" y1="0" x2="516.00" y2="482.0" stroke="#eee" stroke-width="1" /><text x="516.00" y="486.0" dy="1em" fill="#9c9c9c" text-anchor="middle" font-family="Monaco">6</text></g><g class="tick"><line x1="688" y1="0" x2="688" y2="482.0" stroke="#eee" stroke-width="1" /><text x="688" y="486.0" dy="1em" fill="#9c9c9c" text-anchor="middle" font-family="Monaco">8</text></g><g class="tick"><line x1="0" y1="0" x2="0" y2="482.0" stroke="#a8a8a8" stroke-width="1" /><text x="0" y="486.0" dy="1em" fill="#9c9c9c" text-anchor="middle" font-family="Monaco">0</text></g></g><g class="axis left"><g class="tick"><line x1="-4" y1="478" x2="688.0" y2="478" stroke="#eee" stroke-width="1" /><text x="-8" y="478" dy="0.32em" fill="#9c9c9c" text-anchor="end" font-family="Monaco">2.5</text></g><g class="tick"><line x1="-4" y1="318.6666666666666666666666667" x2="688.0" y2="318.6666666666666666666666667" stroke="#eee" stroke-width="1" /><text x="-8" y="318.6666666666666666666666667" dy="0.32em" fill="#9c9c9c" text-anchor="end" font-family="Monaco">5</text></g><g class="tick"><line x1="-4" y1="159.3333333333333333333333333" x2="688.0" y2="159.3333333333333333333333333" stroke="#eee" stroke-width="1" /><text x="-8" y="159.3333333333333333333333333" dy="0.32em" fill="#9c9c9c" text-anchor="end" font-family="Monaco">7.5</text></g><g class="tick"><line x1="-4" y1="0" x2="688.0" y2="0" stroke="#eee" stroke-width="1" /><text x="-8" y="0" dy="0.32em" fill="#9c9c9c" text-anchor="end" font-family="Monaco">10</text></g></g><g><g class="series lines"><path stroke="#e41a1c" fill="none" stroke-width="2" d="M 0 446.1333333333333333333333333 L 344.0 318.6666666666666666666666667 L 602.000 63.7333333333333333333333333 L 688 382.4" /></g></g></g></g></g></g></svg>